<mxfile host="app.diagrams.net" modified="2021-12-15T02:58:47.833Z" agent="5.0 (Macintosh; Intel Mac OS X 10_15_7) AppleWebKit/537.36 (KHTML, like Gecko) Chrome/96.0.4664.55 Safari/537.36" etag="jWpW08authcAf7g0zzsi" version="15.9.6" type="github">
  <diagram id="adxMsUsY2K5jievwT3nB" name="Page-1">
    <mxGraphModel dx="996" dy="648" grid="0" gridSize="10" guides="1" tooltips="1" connect="1" arrows="1" fold="1" page="1" pageScale="1" pageWidth="827" pageHeight="1169" math="0" shadow="0">
      <root>
        <mxCell id="0" />
        <mxCell id="1" parent="0" />
        <mxCell id="myyAIWmpNg9GB4v1K9A1-1" value="" style="rounded=0;orthogonalLoop=1;jettySize=auto;html=1;fontFamily=Comic Sans MS;fontColor=#3D3D3D;strokeWidth=2;strokeColor=#303030;" edge="1" parent="1" source="myyAIWmpNg9GB4v1K9A1-2" target="myyAIWmpNg9GB4v1K9A1-5">
          <mxGeometry relative="1" as="geometry" />
        </mxCell>
        <mxCell id="myyAIWmpNg9GB4v1K9A1-2" value="&lt;div style=&quot;font-size: 9.8pt&quot;&gt;catalyst/parser/ParserInterfac&lt;span style=&quot;font-size: 9.8pt&quot;&gt;e&lt;/span&gt;&lt;/div&gt;&lt;div&gt;&lt;font color=&quot;#5471ff&quot; style=&quot;font-size: 11px&quot;&gt;sql、expression等标识符解析&lt;/font&gt;&lt;/div&gt;" style="rounded=1;whiteSpace=wrap;html=1;fontFamily=Comic Sans MS;fontColor=#3B3B3B;labelBackgroundColor=none;sketch=1;glass=0;shadow=0;strokeColor=#525252;" vertex="1" parent="1">
          <mxGeometry x="130" y="69" width="210" height="49" as="geometry" />
        </mxCell>
        <mxCell id="myyAIWmpNg9GB4v1K9A1-3" value="" style="rounded=0;orthogonalLoop=1;jettySize=auto;html=1;strokeWidth=2;fontFamily=Comic Sans MS;fontColor=#3D3D3D;exitX=0.5;exitY=1;exitDx=0;exitDy=0;strokeColor=#303030;" edge="1" parent="1" source="myyAIWmpNg9GB4v1K9A1-5" target="myyAIWmpNg9GB4v1K9A1-6">
          <mxGeometry relative="1" as="geometry" />
        </mxCell>
        <mxCell id="myyAIWmpNg9GB4v1K9A1-4" style="rounded=0;orthogonalLoop=1;jettySize=auto;html=1;strokeWidth=2;fontFamily=Comic Sans MS;fontColor=#3D3D3D;exitX=0.5;exitY=1;exitDx=0;exitDy=0;strokeColor=#303030;" edge="1" parent="1" source="myyAIWmpNg9GB4v1K9A1-5" target="myyAIWmpNg9GB4v1K9A1-8">
          <mxGeometry relative="1" as="geometry" />
        </mxCell>
        <mxCell id="myyAIWmpNg9GB4v1K9A1-5" value="&lt;div style=&quot;font-size: 9.8pt&quot;&gt;AbstractSqlParser&lt;/div&gt;&lt;div&gt;&lt;font style=&quot;font-size: 11px&quot; color=&quot;#5471ff&quot;&gt;定义了返回AstBuilder函数&lt;/font&gt;&lt;/div&gt;" style="rounded=1;whiteSpace=wrap;html=1;fontFamily=Comic Sans MS;labelBackgroundColor=none;shadow=0;glass=0;comic=1;fillColor=#fff2cc;strokeColor=#d6b656;allowArrows=1;connectable=1;portConstraintRotation=0;imageAspect=1;absoluteArcSize=0;noLabel=0;snapToPoint=0;perimeter=rectanglePerimeter;autosize=0;container=0;dropTarget=0;collapsible=0;recursiveResize=1;expand=1;editable=1;movable=1;resizable=1;movableLabel=0;treeFolding=0;sketch=1;" vertex="1" parent="1">
          <mxGeometry x="151.25" y="213" width="167.5" height="50" as="geometry" />
        </mxCell>
        <mxCell id="myyAIWmpNg9GB4v1K9A1-6" value="&lt;div&gt;&lt;div style=&quot;font-size: 12px&quot;&gt;CatalystSqlParser&lt;/div&gt;&lt;div&gt;&lt;font style=&quot;font-size: 11px&quot; color=&quot;#5471ff&quot;&gt;仅用于Catalyst内部&lt;/font&gt;&lt;/div&gt;&lt;/div&gt;" style="rounded=1;whiteSpace=wrap;html=1;fontFamily=Comic Sans MS;fontColor=#000000;labelBackgroundColor=none;fontSize=12;sketch=1;" vertex="1" parent="1">
          <mxGeometry x="80" y="336" width="135" height="51" as="geometry" />
        </mxCell>
        <mxCell id="myyAIWmpNg9GB4v1K9A1-7" value="" style="edgeStyle=none;rounded=0;orthogonalLoop=1;jettySize=auto;html=1;strokeWidth=2;fontFamily=Comic Sans MS;fontSize=12;fontColor=#000000;" edge="1" parent="1" source="myyAIWmpNg9GB4v1K9A1-8" target="myyAIWmpNg9GB4v1K9A1-11">
          <mxGeometry relative="1" as="geometry" />
        </mxCell>
        <mxCell id="myyAIWmpNg9GB4v1K9A1-8" value="&lt;div&gt;&lt;font style=&quot;font-size: 12px&quot;&gt;SparkSqlParser&lt;/font&gt;&lt;/div&gt;&lt;div style=&quot;font-size: 11px&quot;&gt;&lt;font style=&quot;font-size: 11px&quot; color=&quot;#5471ff&quot;&gt;用于外部调用&lt;/font&gt;&lt;/div&gt;" style="rounded=1;whiteSpace=wrap;html=1;fontFamily=Comic Sans MS;labelBackgroundColor=none;sketch=1;fillColor=#d5e8d4;strokeColor=#82b366;" vertex="1" parent="1">
          <mxGeometry x="245" y="336" width="135" height="51" as="geometry" />
        </mxCell>
        <mxCell id="myyAIWmpNg9GB4v1K9A1-9" value="" style="edgeStyle=none;rounded=0;orthogonalLoop=1;jettySize=auto;html=1;strokeWidth=2;fontFamily=Comic Sans MS;fontSize=12;fontColor=#3D3D3D;startArrow=classic;startFill=1;endArrow=none;endFill=0;strokeColor=#303030;" edge="1" parent="1" source="myyAIWmpNg9GB4v1K9A1-11" target="myyAIWmpNg9GB4v1K9A1-14">
          <mxGeometry relative="1" as="geometry" />
        </mxCell>
        <mxCell id="myyAIWmpNg9GB4v1K9A1-10" value="继承" style="edgeLabel;html=1;align=center;verticalAlign=middle;resizable=0;points=[];fontSize=12;fontFamily=Comic Sans MS;fontColor=#3D3D3D;" vertex="1" connectable="0" parent="myyAIWmpNg9GB4v1K9A1-9">
          <mxGeometry x="0.1083" relative="1" as="geometry">
            <mxPoint as="offset" />
          </mxGeometry>
        </mxCell>
        <mxCell id="myyAIWmpNg9GB4v1K9A1-11" value="&lt;div&gt;&lt;font style=&quot;font-size: 12px&quot;&gt;SparkSqlAstBuilder&lt;/font&gt;&lt;/div&gt;&lt;div style=&quot;font-size: 11px&quot;&gt;&lt;font style=&quot;font-size: 11px&quot; color=&quot;#5471ff&quot;&gt;用于生成抽象语法树AST&lt;/font&gt;&lt;/div&gt;" style="rounded=1;whiteSpace=wrap;html=1;fontFamily=Comic Sans MS;labelBackgroundColor=none;shadow=0;comic=1;glass=0;sketch=1;fillColor=#d5e8d4;strokeColor=#82b366;" vertex="1" parent="1">
          <mxGeometry x="460" y="336" width="135" height="51" as="geometry" />
        </mxCell>
        <mxCell id="myyAIWmpNg9GB4v1K9A1-12" value="" style="edgeStyle=none;rounded=1;orthogonalLoop=1;jettySize=auto;html=1;startArrow=classic;startFill=1;endArrow=none;endFill=0;strokeWidth=2;fontFamily=Comic Sans MS;fontSize=12;fontColor=#3D3D3D;strokeColor=#474747;" edge="1" parent="1" source="myyAIWmpNg9GB4v1K9A1-14" target="myyAIWmpNg9GB4v1K9A1-15">
          <mxGeometry relative="1" as="geometry" />
        </mxCell>
        <mxCell id="myyAIWmpNg9GB4v1K9A1-13" value="继承" style="edgeLabel;html=1;align=center;verticalAlign=middle;resizable=0;points=[];fontSize=12;fontFamily=Comic Sans MS;fontColor=#000000;" vertex="1" connectable="0" parent="myyAIWmpNg9GB4v1K9A1-12">
          <mxGeometry x="0.25" y="1" relative="1" as="geometry">
            <mxPoint as="offset" />
          </mxGeometry>
        </mxCell>
        <mxCell id="myyAIWmpNg9GB4v1K9A1-14" value="&lt;div&gt;&lt;font style=&quot;font-size: 12px&quot;&gt;AstBuilder&lt;/font&gt;&lt;/div&gt;" style="rounded=1;whiteSpace=wrap;html=1;fontFamily=Comic Sans MS;fontColor=#3B3B3B;labelBackgroundColor=none;sketch=1;strokeColor=#525252;" vertex="1" parent="1">
          <mxGeometry x="460" y="205" width="135" height="51" as="geometry" />
        </mxCell>
        <mxCell id="myyAIWmpNg9GB4v1K9A1-15" value="&lt;div&gt;&lt;font style=&quot;font-size: 12px&quot;&gt;SqlBaseBaseVisitor&lt;/font&gt;&lt;/div&gt;" style="rounded=1;whiteSpace=wrap;html=1;fontFamily=Comic Sans MS;fontColor=#3B3B3B;labelBackgroundColor=none;sketch=1;strokeColor=#525252;" vertex="1" parent="1">
          <mxGeometry x="460" y="74" width="135" height="51" as="geometry" />
        </mxCell>
      </root>
    </mxGraphModel>
  </diagram>
</mxfile>
